<svg width="22" height="41" viewBox="0 0 22 41" fill="none" xmlns="http://www.w3.org/2000/svg">
<g clip-path="url(#clip0)">
<path d="M6.30945 0.843262C4.67428 0.843262 3.10609 1.50509 1.94985 2.68316C0.793611 3.86122 0.144043 5.45902 0.144043 7.12506V17.5702C0.153661 12.56 4.9228 10.6212 8.98818 10.6212H12.5326C14.7859 10.6212 16.947 9.70917 18.5403 8.08573C20.1337 6.46229 21.0288 4.26044 21.0288 1.96455V0.843262H6.30945Z" fill="url(#paint0_linear)"/>
<path d="M9.74181 10.6191H8.98917C4.92378 10.6191 0.154638 12.5579 0.14502 17.5682V18.5563H9.74181V10.6191Z" fill="url(#paint1_linear)"/>
<path d="M9.13884 27.1848H7.85638C4.37531 27.1848 0.15122 29.1236 0.141602 34.1338V40.1821H1.1836C3.45297 40.1823 5.62949 39.264 7.2344 37.6293C8.83931 35.9945 9.74117 33.7772 9.7416 31.465V27.1611C9.54201 27.175 9.34163 27.1848 9.13884 27.1848Z" fill="url(#paint2_linear)"/>
<path d="M0.144807 27.1871V34.1386C0.154426 29.1283 5.50708 27.1896 8.98895 27.1896H9.59091C10.7081 27.1895 11.8142 26.9651 12.8463 26.5294C13.8783 26.0937 14.816 25.4551 15.6058 24.6501C16.3956 23.8451 17.022 22.8894 17.4493 21.8377C17.8766 20.786 18.0963 19.6589 18.096 18.5207V17.4092H0.141602L0.144807 27.1871Z" fill="url(#paint3_linear)"/>
</g>
<defs>
<linearGradient id="paint0_linear" x1="4.81218" y1="11.758" x2="16.3257" y2="-1.2416" gradientUnits="userSpaceOnUse">
<stop stop-color="#6E69FB"/>
<stop offset="0.33" stop-color="#775AEB"/>
<stop offset="0.7" stop-color="#7E52E2"/>
<stop offset="1" stop-color="#7E48D3"/>
</linearGradient>
<linearGradient id="paint1_linear" x1="5.69806" y1="23.2505" x2="4.40622" y2="8.97863" gradientUnits="userSpaceOnUse">
<stop offset="0.24" stop-color="#562ACA"/>
<stop offset="0.29" stop-color="#6236D1"/>
<stop offset="0.41" stop-color="#774ADD"/>
<stop offset="0.49" stop-color="#7E51E1"/>
<stop offset="0.59" stop-color="#784BDE"/>
<stop offset="0.74" stop-color="#673BD4"/>
<stop offset="0.88" stop-color="#4F24C6"/>
</linearGradient>
<linearGradient id="paint2_linear" x1="7.26325" y1="43.0249" x2="3.42615" y2="28.1271" gradientUnits="userSpaceOnUse">
<stop offset="0.17" stop-color="#775AEB"/>
<stop offset="0.42" stop-color="#7E51E1"/>
<stop offset="0.59" stop-color="#794DDE"/>
<stop offset="0.78" stop-color="#6C40D7"/>
<stop offset="0.93" stop-color="#5D31CE"/>
</linearGradient>
<linearGradient id="paint3_linear" x1="0.484659" y1="25.6567" x2="21.8229" y2="18.6784" gradientUnits="userSpaceOnUse">
<stop stop-color="#6E69FB"/>
<stop offset="0.39" stop-color="#775AEB"/>
<stop offset="0.66" stop-color="#7E52E2"/>
<stop offset="0.87" stop-color="#7E48D3"/>
</linearGradient>
<clipPath id="clip0">
<rect width="22" height="41" fill="white"/>
</clipPath>
</defs>
</svg>
